<svg width="659" height="441" viewBox="0 0 659 441" fill="none" xmlns="http://www.w3.org/2000/svg">
<path opacity="0.1" d="M551.793 113.388C592.202 161.682 520.165 422.863 404.94 422.863C289.715 422.863 9.92714 259.211 112.246 159.79C214.566 60.3687 275.669 79.5618 305.237 88.4321C334.804 97.3024 511.384 65.0938 551.793 113.388Z" fill="#005EAC"/>
<path opacity="0.1" d="M529.766 355.789C543.49 408.774 388.832 373.139 302.323 373.139C215.814 373.139 114.643 392.488 114.643 366.033C172.599 320.939 203.109 338.127 289.619 338.127C376.128 338.127 529.766 329.333 529.766 355.789Z" fill="#005EAC"/>
<g clip-path="url(#clip0_14096_24527)">
<path d="M531.622 336.885H91.7852V337.105H531.622V336.885Z" fill="#EBEBEB"/>
<path d="M487.551 351.044H468.48V351.264H487.551V351.044Z" fill="#EBEBEB"/>
<path d="M394.979 346.481H364.975V346.701H394.979V346.481Z" fill="#EBEBEB"/>
<path d="M479.819 342.876H440.651V343.096H479.819V342.876Z" fill="#EBEBEB"/>
<path d="M243.982 347.311H234.184V347.531H243.982V347.311Z" fill="#EBEBEB"/>
<path d="M226.352 347.311H192.582V347.531H226.352V347.311Z" fill="#EBEBEB"/>
<path d="M174.476 343.597H150.114V343.817H174.476V343.597Z" fill="#EBEBEB"/>
<path d="M300.28 297.653H130.416C127.648 297.653 125.395 295.401 125.395 292.632V53.861C125.395 51.0926 127.648 48.8398 130.416 48.8398H300.28C303.047 48.8398 305.3 51.0926 305.3 53.861V292.632C305.3 295.401 303.047 297.653 300.28 297.653ZM130.416 49.0606C127.768 49.0606 125.615 51.214 125.615 53.8618V292.633C125.615 295.281 127.768 297.434 130.416 297.434H300.28C302.927 297.434 305.08 295.281 305.08 292.633V53.861C305.08 51.214 302.927 49.0597 300.28 49.0597L130.416 49.0606Z" fill="#EBEBEB"/>
<path d="M490.55 297.653H320.687C317.918 297.653 315.666 295.401 315.666 292.632V53.861C315.666 51.0926 317.919 48.8398 320.687 48.8398H490.55C493.319 48.8398 495.571 51.0926 495.571 53.861V292.632C495.572 295.401 493.319 297.653 490.55 297.653ZM320.687 49.0606C318.04 49.0606 315.886 51.214 315.886 53.8618V292.633C315.886 295.281 318.04 297.434 320.687 297.434H490.55C493.197 297.434 495.351 295.281 495.351 292.633V53.861C495.351 51.214 493.197 49.0597 490.55 49.0597L320.687 49.0606Z" fill="#EBEBEB"/>
<path d="M281.858 177.207L282.254 165.647L275.156 163.328C274.864 159.379 274.204 155.478 273.264 151.72L279.28 147.285L275.193 136.427L267.753 137.026C265.98 133.515 263.896 130.175 261.56 127.042L265.414 120.609L257.49 112.154L250.838 115.56C247.842 113.014 244.684 110.708 241.303 108.669L242.381 101.285L231.826 96.4952L226.991 102.162C223.307 100.967 219.49 100.073 215.541 99.4799L213.743 92.242L202.152 91.8452L199.864 98.9433C195.883 99.2644 192.013 99.8951 188.256 100.836L183.789 94.8493L172.932 98.9055L173.532 106.347C170.021 108.15 166.681 110.233 163.548 112.569L157.146 108.716L148.66 116.609L152.066 123.291C149.521 126.257 147.213 129.447 145.203 132.828L137.821 131.721L133.001 142.273L138.698 147.11C137.504 150.795 136.577 154.642 136.016 158.561L128.746 160.388L128.351 171.947L135.478 174.269C135.769 178.248 136.43 182.119 137.371 185.875L131.356 190.311L135.442 201.169L142.883 200.568C144.656 204.079 146.74 207.419 149.076 210.553L145.221 216.986L153.146 225.441L159.797 222.034C162.763 224.58 165.952 226.888 169.333 228.927L168.224 236.309L178.779 241.098L183.645 235.432C187.329 236.628 191.146 237.522 195.096 238.115L196.894 245.353L208.484 245.749L210.774 238.651C214.754 238.33 218.623 237.699 222.381 236.759L226.817 242.743L237.674 238.687L237.104 231.249C240.616 229.445 243.925 227.36 247.088 225.024L253.491 228.879L261.975 220.986L258.571 214.304C261.116 211.337 263.423 208.148 265.433 204.766L272.816 205.875L277.635 195.321L271.938 190.485C273.133 186.801 274.058 182.985 274.62 179.035L281.858 177.207ZM203.746 214.655C178.431 213.788 158.608 192.558 159.475 167.242C160.343 141.896 181.573 122.074 206.889 122.942C232.204 123.809 252.027 145.037 251.159 170.383C250.292 195.699 229.062 215.523 203.746 214.655Z" fill="#EBEBEB"/>
<path d="M479.683 138.981L482.598 136.258L481.434 133.962C482.326 132.928 483.116 131.816 483.803 130.67L486.351 131.056L488.002 127.412L486.041 125.744C486.465 124.456 486.771 123.133 486.966 121.8L489.475 121.171L489.604 117.177L487.151 116.385C487.041 115.034 486.834 113.702 486.507 112.38L488.57 110.843L487.165 107.101L484.604 107.304C483.997 106.114 483.284 104.965 482.466 103.858L483.793 101.654L481.063 98.7313L478.773 99.903C477.724 99.0102 476.627 98.2211 475.482 97.5341L475.852 94.9848L472.215 93.3266L470.548 95.2874C469.252 94.8704 467.93 94.5643 466.595 94.3699L465.973 91.869L461.98 91.7247L461.181 94.1843C459.837 94.2872 458.497 94.5019 457.182 94.837L455.652 92.7671L451.904 94.1649L452.113 96.7336C450.923 97.3406 449.759 98.0531 448.667 98.8721L446.449 97.5446L443.534 100.267L444.705 102.571C443.806 103.613 443.024 104.717 442.337 105.863L439.788 105.478L438.136 109.122L440.097 110.79C439.673 112.079 439.367 113.401 439.172 114.734L436.664 115.363L436.534 119.358L438.987 120.149C439.09 121.493 439.304 122.833 439.631 124.155L437.561 125.684L438.966 129.426L441.535 129.23C442.142 130.421 442.855 131.569 443.674 132.677L442.347 134.881L445.077 137.804L447.366 136.631C448.414 137.523 449.512 138.313 450.657 139L450.28 141.541L453.917 143.2L455.591 141.247C456.888 141.664 458.203 141.962 459.544 142.163L460.166 144.664L464.159 144.809L464.958 142.349C466.302 142.246 467.642 142.031 468.957 141.696L470.487 143.767L474.236 142.369L474.026 139.801C475.215 139.194 476.372 138.489 477.472 137.663L479.683 138.981ZM458.909 122.152C456.764 119.855 456.887 116.253 459.184 114.108C461.483 111.961 465.086 112.084 467.23 114.382C469.375 116.678 469.252 120.281 466.952 122.428C464.656 124.573 461.053 124.449 458.909 122.152Z" fill="#EBEBEB"/>
<path d="M373.271 257.66L364.174 251.377C364.171 251.37 364.171 251.362 364.169 251.355C363.269 248.051 362.028 244.87 360.51 241.88L362.841 232.733L349.645 218.601L340.357 220.301C337.48 218.585 334.394 217.13 331.161 216.007C331.154 216.005 331.145 216.003 331.138 216L325.49 206.49L306.168 205.828L299.886 214.925C299.874 214.927 299.862 214.931 299.85 214.933C296.548 215.833 293.37 217.072 290.385 218.588L281.242 216.257L267.111 229.453L268.808 238.723C268.806 238.727 268.804 238.728 268.803 238.731C267.05 241.64 265.629 244.728 264.505 247.963L254.998 253.607L254.336 272.93L263.44 279.218C264.339 282.546 265.542 285.72 267.088 288.735C267.089 288.736 267.089 288.736 267.09 288.738L264.766 297.857L277.961 311.987L287.191 310.298C290.105 312.02 293.196 313.477 296.468 314.602C296.471 314.604 296.473 314.604 296.476 314.604L302.114 324.099L321.436 324.761L327.714 315.671C331.054 314.773 334.237 313.532 337.26 312.013C337.26 312.013 337.261 312.013 337.262 312.012L346.363 314.33L360.494 301.136L358.798 291.864C360.55 288.955 361.971 285.866 363.095 282.631L363.096 282.63L372.607 276.981L373.271 257.66ZM313.055 287.032C301.044 286.621 291.662 276.537 292.072 264.56C292.483 252.549 302.533 243.166 314.544 243.576C326.555 243.988 335.938 254.038 335.528 266.049C335.118 278.025 325.066 287.444 313.055 287.032Z" fill="#EBEBEB"/>
<path d="M393.995 202.784C393.974 202.784 393.953 202.784 393.932 202.783L378.698 202.262C378.066 202.241 377.488 201.898 377.165 201.354L373.063 194.447C370.882 193.656 368.733 192.658 366.657 191.475L360.053 192.683C359.43 192.801 358.793 192.587 358.361 192.124L347.958 180.984C347.526 180.522 347.36 179.871 347.516 179.257L349.177 172.739C348.168 170.674 347.323 168.469 346.662 166.168L340.037 161.593C339.516 161.234 339.214 160.633 339.235 160.001L339.757 144.768C339.778 144.136 340.121 143.558 340.665 143.235L347.584 139.126C348.405 136.879 349.4 134.741 350.549 132.75L349.336 126.123C349.222 125.502 349.433 124.863 349.895 124.432L361.036 114.028C361.499 113.595 362.15 113.43 362.763 113.585L369.303 115.252C371.419 114.223 373.617 113.375 375.856 112.727L380.428 106.107C380.787 105.587 381.377 105.265 382.02 105.307L397.253 105.829C397.886 105.851 398.464 106.193 398.787 106.737L402.896 113.657C405.08 114.456 407.212 115.451 409.254 116.623L415.899 115.406C416.523 115.292 417.159 115.502 417.591 115.965L427.994 127.107C428.426 127.57 428.593 128.221 428.437 128.834L426.769 135.377C427.799 137.493 428.646 139.691 429.295 141.927L435.915 146.498C436.436 146.856 436.737 147.457 436.716 148.09L436.195 163.324C436.174 163.956 435.83 164.534 435.287 164.857L428.365 168.968C427.544 171.214 426.551 173.351 425.404 175.339L426.617 181.969C426.73 182.591 426.52 183.229 426.057 183.66L414.916 194.061C414.454 194.494 413.804 194.661 413.19 194.504L406.68 192.845C404.534 193.881 402.324 194.728 400.093 195.37L395.526 201.984C395.176 202.485 394.605 202.784 393.995 202.784ZM379.84 198.584L393.043 199.037L397.416 192.705C397.666 192.343 398.037 192.081 398.462 191.967C400.894 191.313 403.307 190.388 405.636 189.217C405.64 189.215 405.644 189.214 405.648 189.211C406.036 189.02 406.488 188.961 406.931 189.076L413.122 190.654L422.778 181.638L421.623 175.327C421.541 174.882 421.626 174.423 421.859 174.034C423.132 171.92 424.213 169.601 425.069 167.143C425.21 166.706 425.508 166.339 425.897 166.111L432.515 162.18L432.967 148.976L426.631 144.6C426.299 144.371 426.051 144.041 425.924 143.66C425.908 143.612 425.894 143.562 425.881 143.511C425.219 141.085 424.297 138.701 423.142 136.425C422.938 136.023 422.888 135.561 422.998 135.125L424.585 128.899L415.568 119.241L409.244 120.399C408.801 120.48 408.344 120.397 407.958 120.166C405.759 118.854 403.437 117.769 401.056 116.941C400.922 116.895 400.785 116.832 400.668 116.761C400.411 116.603 400.198 116.385 400.045 116.127L396.111 109.504L382.908 109.051L378.531 115.388C378.271 115.765 377.881 116.031 377.438 116.137C374.995 116.807 372.619 117.725 370.353 118.875C369.951 119.079 369.488 119.13 369.054 119.018L362.83 117.431L353.174 126.449L354.329 132.759C354.402 133.155 354.343 133.564 354.163 133.924C354.138 133.975 354.11 134.024 354.08 134.073C352.803 136.195 351.721 138.521 350.866 140.986C350.721 141.4 350.436 141.75 350.06 141.973L343.438 145.906L342.985 159.109L349.328 163.49C349.689 163.739 349.951 164.109 350.066 164.533C350.749 167.063 351.67 169.466 352.802 171.674C352.867 171.8 352.918 171.934 352.952 172.073C353.027 172.371 353.026 172.684 352.95 172.982L351.369 179.187L360.385 188.842L366.664 187.694C367.105 187.613 367.559 187.695 367.944 187.922C370.182 189.246 372.516 190.33 374.882 191.146C375.31 191.282 375.68 191.571 375.915 191.968L379.84 198.584ZM387.996 181.901C387.67 181.901 387.346 181.895 387.018 181.883C371.672 181.357 359.614 168.445 360.14 153.098C360.666 137.752 373.6 125.698 388.925 126.218C404.272 126.744 416.33 139.657 415.804 155.005C415.55 162.429 412.417 169.316 406.984 174.395C401.785 179.256 395.073 181.901 387.996 181.901ZM387.962 129.917C375.033 129.917 364.299 140.205 363.853 153.225C363.397 166.524 373.846 177.715 387.146 178.17C393.59 178.386 399.735 176.087 404.448 171.681C409.157 167.279 411.872 161.311 412.092 154.877C412.547 141.578 402.098 130.387 388.799 129.932C388.519 129.923 388.239 129.917 387.962 129.917Z" fill="#EBEBEB"/>
<path d="M429.086 93.1498L422.775 91.4555L421.081 85.1457L423.552 82.6747L426.158 88.0723L431.556 90.6797L429.086 93.1498Z" fill="#E0E0E0"/>
<path d="M429.477 88.9256C430.627 87.7759 430.627 85.9022 429.477 84.7524C428.328 83.6027 426.463 83.6115 425.313 84.7612L428.452 80.0523L432.662 82.1803L433.585 86.6041L429.477 88.9256Z" fill="#E0E0E0"/>
<path d="M423.054 83.1725L427.679 78.5481L433.988 80.2423L435.684 86.5531L431.059 91.1776L424.748 89.4824L423.054 83.1725ZM431.451 86.9534C432.6 85.8036 432.6 83.9299 431.451 82.7802C430.301 81.6305 428.436 81.6393 427.286 82.789C426.136 83.9387 426.136 85.7957 427.286 86.9446C428.436 88.0943 430.301 88.1031 431.451 86.9534Z" fill="#F0F0F0"/>
<path d="M171.15 261.506L174.536 260.596L175.446 257.211L174.12 255.885L172.721 258.782L169.824 260.18L171.15 261.506Z" fill="#E0E0E0"/>
<path d="M170.94 259.239C170.323 258.622 170.323 257.617 170.94 256.999C171.557 256.383 172.558 256.387 173.174 257.004L171.49 254.477L169.231 255.618L168.735 257.992L170.94 259.239Z" fill="#E0E0E0"/>
<path d="M174.387 256.152L171.906 253.671L168.52 254.58L167.61 257.967L170.092 260.449L173.478 259.539L174.387 256.152ZM169.881 258.181C169.264 257.564 169.264 256.559 169.881 255.941C170.497 255.324 171.498 255.329 172.115 255.946C172.732 256.562 172.732 257.559 172.115 258.176C171.499 258.793 170.498 258.797 169.881 258.181Z" fill="#F0F0F0"/>
<path d="M158.96 75.8546L161.77 78.6651C162.502 79.397 163.699 79.397 164.431 78.6651C165.163 77.9332 165.163 76.736 164.431 76.0041L161.621 73.1935C160.889 72.4617 159.692 72.4617 158.96 73.1935C158.228 73.9254 158.228 75.1235 158.96 75.8546Z" fill="#F0F0F0"/>
<path d="M156.979 68.855C159.145 68.0774 161.493 69.0943 162.223 71.1272C162.953 73.1601 161.79 75.4385 159.624 76.217C157.458 76.9946 155.11 75.9777 154.38 73.9448C153.65 71.9118 154.814 69.6335 156.979 68.855Z" fill="#E0E0E0"/>
<path d="M153.917 73.4756L154.324 74.6098L162.687 71.6062L162.28 70.472L153.917 73.4756Z" fill="#F0F0F0"/>
<path d="M311.703 376.614C405.9 376.614 482.262 372.154 482.262 366.653C482.262 361.152 405.9 356.693 311.703 356.693C217.506 356.693 141.144 361.152 141.144 366.653C141.144 372.154 217.506 376.614 311.703 376.614Z" fill="#F5F5F5"/>
<path d="M168.067 106.629C167.186 102.756 167.58 99.4949 169.247 96.8444C170.915 94.1957 173.676 92.4337 177.528 91.5576C181.477 90.6594 184.761 91.028 187.38 92.6633C189.999 94.2977 191.742 97.0247 192.611 100.845C193.241 103.619 193.291 105.999 192.762 107.986C192.231 109.974 191.197 111.662 189.658 113.051C188.117 114.44 186.031 115.432 183.398 116.031C180.722 116.64 178.41 116.717 176.462 116.264C174.515 115.81 172.786 114.784 171.277 113.186C169.767 111.589 168.697 109.403 168.067 106.629ZM175.407 104.995C175.951 107.392 176.788 109.011 177.917 109.855C179.044 110.7 180.374 110.946 181.908 110.598C183.483 110.241 184.586 109.451 185.216 108.23C185.846 107.009 185.86 105.07 185.256 102.416C184.748 100.183 183.926 98.653 182.791 97.8261C181.655 97.001 180.316 96.7635 178.773 97.1145C177.295 97.4505 176.227 98.244 175.569 99.494C174.911 100.745 174.857 102.578 175.407 104.995Z" fill="#263238"/>
<path d="M196.108 103.727C195.512 101.106 195.906 98.7427 197.29 96.6403C198.672 94.5379 200.87 93.1445 203.881 92.461C207.323 91.6781 210.15 92.0845 212.364 93.682C214.142 94.9689 215.3 96.7881 215.835 99.1404C216.436 101.786 216.052 104.15 214.682 106.238C213.312 108.325 211.078 109.721 207.981 110.425C205.219 111.053 202.825 110.86 200.801 109.844C198.313 108.584 196.749 106.545 196.108 103.727ZM202.709 102.21C203.058 103.742 203.625 104.805 204.413 105.398C205.2 105.991 206.063 106.18 207.002 105.967C207.951 105.75 208.649 105.212 209.094 104.35C209.539 103.489 209.58 102.259 209.218 100.663C208.879 99.1738 208.32 98.134 207.539 97.5455C206.758 96.957 205.914 96.7652 205.008 96.972C204.047 97.1901 203.338 97.7408 202.881 98.6222C202.422 99.5028 202.365 100.699 202.709 102.21Z" fill="#263238"/>
<path d="M222.491 113.596L217.096 89.8651L223.264 88.462L223.842 91.0034C224.451 89.7419 225.069 88.842 225.695 88.3019C226.54 87.577 227.546 87.0809 228.712 86.817C231.01 86.2936 232.988 86.7695 234.645 88.2421C236.302 89.7155 237.426 91.7467 238.014 94.3373C238.664 97.1971 238.475 99.5353 237.447 101.353C236.418 103.169 234.858 104.316 232.764 104.792C231.75 105.023 230.786 105.061 229.87 104.905C228.955 104.749 228.091 104.408 227.279 103.877L229.144 112.084L222.491 113.596ZM225.666 97.008C225.975 98.368 226.49 99.3119 227.212 99.8406C227.933 100.369 228.731 100.533 229.605 100.335C230.371 100.161 230.942 99.6989 231.316 98.9503C231.69 98.2009 231.706 97.0714 231.363 95.5601C231.046 94.1676 230.544 93.207 229.856 92.6774C229.168 92.1461 228.435 91.9701 227.659 92.1461C226.818 92.3378 226.19 92.8269 225.779 93.6116C225.367 94.398 225.329 95.5293 225.666 97.008Z" fill="#263238"/>
<path d="M240.833 97.527L247.232 95.4246C247.678 96.1398 248.183 96.6104 248.744 96.8356C249.306 97.0591 249.992 97.0793 250.801 96.8954C251.685 96.694 252.328 96.35 252.728 95.8618C253.042 95.4959 253.151 95.1035 253.056 94.6822C252.948 94.208 252.617 93.8975 252.062 93.7524C251.664 93.6503 250.668 93.6389 249.075 93.7172C246.696 93.8395 245.024 93.8307 244.056 93.6943C243.088 93.5562 242.207 93.1533 241.414 92.483C240.621 91.8136 240.106 90.9603 239.871 89.9258C239.614 88.7936 239.721 87.7442 240.193 86.7748C240.665 85.8054 241.432 84.9873 242.495 84.3205C243.558 83.6537 245.06 83.0995 247.003 82.6579C249.053 82.1917 250.602 82.0052 251.65 82.0949C252.698 82.1864 253.623 82.4864 254.425 82.9957C255.228 83.5059 255.973 84.2721 256.659 85.2969L250.55 87.3325C250.263 86.8179 249.902 86.4748 249.466 86.3024C248.868 86.0737 248.203 86.0429 247.47 86.2109C246.725 86.3798 246.213 86.6349 245.933 86.9762C245.653 87.3176 245.555 87.6773 245.642 88.0547C245.737 88.4752 246.025 88.7435 246.506 88.8605C246.986 88.9793 247.969 88.9581 249.454 88.8024C251.701 88.5535 253.409 88.5271 254.578 88.7268C255.747 88.9256 256.708 89.3707 257.461 90.0613C258.213 90.7518 258.701 91.5875 258.925 92.5692C259.15 93.5615 259.07 94.5942 258.685 95.6674C258.298 96.7415 257.524 97.7021 256.361 98.551C255.198 99.3981 253.504 100.075 251.281 100.582C248.141 101.296 245.802 101.355 244.266 100.763C242.73 100.17 241.586 99.092 240.833 97.527Z" fill="#263238"/>
<path d="M262.309 75.7701L269.529 75.7296L269.561 81.2742L268.229 92.4205L263.764 92.4452L262.34 81.3147L262.309 75.7701ZM262.662 94.1447L269.401 94.1069L269.435 100.066L262.696 100.104L262.662 94.1447Z" fill="#263238"/>
<path d="M204.981 151.435C204.929 151.435 204.875 151.425 204.822 151.405C200.863 149.872 198.494 148.374 197.264 146.574C196.37 146.754 195.37 146.635 194.421 146.183C193.499 145.745 192.611 144.979 191.975 143.877C191.381 144.335 190.647 144.46 189.841 144.207C188.948 143.926 188.018 143.173 187.245 142.086C186.753 142.441 186.249 142.495 185.879 142.464C183.264 142.251 179.721 137.045 179.467 131.497C179.455 131.255 179.643 131.049 179.886 131.039C180.124 131.019 180.335 131.215 180.345 131.459C180.586 136.723 183.96 141.426 185.951 141.588C186.274 141.62 186.544 141.519 186.771 141.343C185.577 139.246 184.957 136.257 185.871 133.063C186.628 130.42 187.297 129.386 188.099 129.578C189.614 129.955 189.416 135.711 188.612 139.508C188.43 140.369 188.168 140.986 187.869 141.428C188.563 142.453 189.386 143.142 190.106 143.369C190.75 143.572 191.227 143.4 191.579 143.065C190.887 141.362 190.744 139.041 191.683 136.081C192.918 132.185 193.415 132.08 193.712 132.017C193.921 131.972 194.131 132.042 194.279 132.211C195.092 133.128 194.121 139.18 193.097 142.172C192.964 142.561 192.799 142.901 192.607 143.19C193.153 144.261 193.958 144.99 194.8 145.39C195.476 145.711 196.169 145.828 196.8 145.769C196.72 145.603 196.649 145.434 196.585 145.262C195.887 143.374 196.229 141.193 197.627 138.596C198.555 136.874 199.312 136.071 200.009 136.07C200.215 136.07 200.603 136.146 200.877 136.652C201.644 138.068 201.089 142.739 199.572 145.057C199.215 145.603 198.722 146.017 198.149 146.286C199.328 147.836 201.566 149.202 205.142 150.588C205.368 150.676 205.48 150.93 205.393 151.156C205.325 151.329 205.157 151.435 204.981 151.435ZM200.008 136.947C200.005 136.947 199.511 136.95 198.401 139.012C197.129 141.373 196.804 143.318 197.409 144.955C197.483 145.156 197.571 145.351 197.673 145.545C198.143 145.343 198.545 145.016 198.835 144.574C200.067 142.69 200.657 138.822 200.199 137.31C200.105 137.001 200.009 136.947 200.008 136.947ZM193.699 133.241C193.472 133.668 193.09 134.546 192.52 136.345C191.765 138.727 191.761 140.642 192.181 142.105C192.21 142.031 192.238 141.958 192.263 141.885C193.298 138.86 193.802 134.694 193.699 133.241ZM187.905 130.47C187.757 130.606 187.329 131.16 186.716 133.303C185.908 136.13 186.405 138.708 187.355 140.557C187.538 140.175 187.664 139.735 187.751 139.324C188.664 135.004 188.398 131.095 187.905 130.47Z" fill="#263238"/>
<path d="M238.425 197.544C237.083 197.544 235.672 197.238 234.413 196.498C234.203 196.374 234.133 196.106 234.256 195.896C234.378 195.685 234.648 195.618 234.858 195.738C237.996 197.581 242.052 196.295 242.887 194.953C242.983 194.795 243.072 194.595 243.016 194.362C241.775 194.493 240.248 194.164 238.502 193.073C236.263 191.673 236.091 191.257 236.105 190.925C236.114 190.727 236.226 190.556 236.405 190.464C237.281 190.02 241.248 191.849 242.902 192.936C243.118 193.079 243.301 193.233 243.449 193.396C244.18 193.218 244.746 192.84 245.123 192.388C245.381 192.078 245.554 191.74 245.639 191.401C245.581 191.41 245.522 191.417 245.463 191.422C244.057 191.564 242.646 190.961 241.143 189.572C240.11 188.617 239.709 187.959 239.843 187.438C239.885 187.271 240.024 186.976 240.475 186.863C241.692 186.56 244.695 187.84 245.923 189.187C246.199 189.49 246.388 189.846 246.488 190.229C247.636 189.689 248.85 188.48 250.287 186.472C250.429 186.274 250.703 186.229 250.901 186.37C251.099 186.511 251.144 186.787 251.003 186.984C249.342 189.306 247.956 190.622 246.564 191.159C246.51 191.778 246.254 192.408 245.8 192.953C245.354 193.487 244.704 193.946 243.881 194.194C243.969 194.59 243.89 195.009 243.635 195.419C242.892 196.612 240.765 197.544 238.425 197.544ZM237.644 191.443C237.939 191.661 238.363 191.949 238.968 192.328C240.162 193.075 241.226 193.419 242.135 193.491C240.678 192.588 238.771 191.788 237.644 191.443ZM240.714 187.706C240.763 187.843 240.958 188.205 241.739 188.927C243.047 190.135 244.236 190.673 245.373 190.549C245.467 190.539 245.561 190.526 245.655 190.507C245.592 190.239 245.465 189.992 245.273 189.781C244.035 188.424 241.315 187.564 240.714 187.706Z" fill="#263238"/>
<path d="M250.075 196.337L236.368 198.827L223.923 130.905L197.477 135.709L154.383 212.24L159.01 237.494L214.286 227.453L218.07 248.109L244.517 243.305L240.732 222.65L254.439 220.16L250.075 196.337ZM180.715 208.937L203.55 168.853L209.923 203.631L180.715 208.937Z" fill="#005EAC"/>
<path d="M360.464 126.286C359.952 121.594 359.015 117.425 357.651 113.779C356.289 110.133 354.238 106.559 351.502 103.057C348.767 99.5547 345.041 96.5145 340.327 93.938C335.612 91.3623 329.389 89.5686 321.658 88.5614C305.567 86.4651 293.024 89.3223 284.024 97.1294C275.023 104.938 269.102 119.896 266.256 142.002C265.098 150.994 264.812 159.305 265.397 166.937C265.98 174.568 267.38 180.706 269.6 185.351C272.635 191.877 276.932 197.089 282.486 200.984C288.039 204.881 295.648 207.459 305.313 208.718C322.552 210.963 335.327 207.655 343.64 198.789C351.951 189.924 357.466 174.939 360.182 153.837C361.395 144.422 361.488 135.239 360.464 126.286Z" fill="#005EAC"/>
<path d="M313.257 199.687C311.141 199.615 308.89 199.424 306.565 199.12C298.513 198.072 292.282 196.034 288.045 193.061C283.865 190.13 280.703 186.274 278.376 181.268L278.333 181.178C276.641 177.639 275.537 172.598 275.047 166.199C274.515 159.26 274.787 151.535 275.855 143.237C278.994 118.852 285.479 108.678 290.367 104.438C296.065 99.494 303.756 97.2596 313.881 97.6062C315.955 97.6774 318.151 97.8631 320.409 98.1569C326.906 99.0031 332.047 100.44 335.689 102.429C339.215 104.357 341.971 106.573 343.878 109.014C345.993 111.72 347.577 114.463 348.588 117.167C349.664 120.044 350.423 123.465 350.845 127.335C351.782 135.524 351.693 144.007 350.588 152.601C348.148 171.548 343.437 184.861 336.583 192.169C331.5 197.592 323.87 200.052 313.26 199.688C313.258 199.687 313.257 199.687 313.257 199.687Z" fill="#263238"/>
<path d="M330.472 126.546L330.586 123.213L328.541 122.545C328.457 121.407 328.267 120.282 327.996 119.199L329.73 117.92L328.552 114.791L326.407 114.963C325.896 113.951 325.295 112.988 324.622 112.085L325.733 110.23L323.449 107.794L321.531 108.775C320.667 108.042 319.757 107.377 318.782 106.789L319.093 104.66L316.051 103.279L314.657 104.913C313.596 104.568 312.495 104.31 311.357 104.14L310.839 102.053L307.498 101.939L306.838 103.985C305.69 104.077 304.575 104.259 303.493 104.53L302.205 102.805L299.075 103.974L299.248 106.119C298.236 106.639 297.273 107.239 296.37 107.912L294.524 106.802L292.079 109.077L293.06 111.003C292.327 111.858 291.662 112.777 291.082 113.752L288.954 113.432L287.565 116.474L289.207 117.869C288.863 118.931 288.596 120.04 288.434 121.169L286.339 121.695L286.225 125.027L288.279 125.697C288.362 126.844 288.553 127.959 288.824 129.042L287.09 130.32L288.268 133.45L290.413 133.277C290.924 134.289 291.525 135.252 292.198 136.155L291.086 138.01L293.371 140.447L295.288 139.465C296.143 140.199 297.062 140.864 298.036 141.453L297.717 143.581L300.758 144.962L302.162 143.328C303.223 143.673 304.324 143.931 305.462 144.101L305.98 146.188L309.321 146.302L309.981 144.256C311.128 144.164 312.243 143.982 313.326 143.711L314.605 145.436L317.735 144.267L317.571 142.122C318.583 141.602 319.537 141.001 320.449 140.328L322.295 141.439L324.74 139.163L323.758 137.237C324.492 136.382 325.157 135.463 325.736 134.488L327.864 134.808L329.253 131.766L327.61 130.371C327.955 129.31 328.222 128.209 328.384 127.071L330.472 126.546ZM307.957 137.34C300.66 137.09 294.946 130.97 295.195 123.674C295.446 116.368 301.565 110.654 308.862 110.904C316.159 111.154 321.873 117.273 321.623 124.579C321.374 131.876 315.254 137.59 307.957 137.34Z" fill="#407BFF"/>
<path opacity="0.3" d="M344.359 187.752L344.6 185.506L343.25 184.955C343.246 184.183 343.179 183.418 343.051 182.673L344.282 181.891L343.657 179.718L342.195 179.73C341.9 179.02 341.552 178.338 341.143 177.697L341.976 176.501L340.565 174.743L339.218 175.304C338.68 174.771 338.1 174.278 337.466 173.834L337.794 172.404L335.813 171.318L334.779 172.363C334.069 172.06 333.335 171.839 332.6 171.67L332.351 170.231L330.105 169.98L329.555 171.33C328.782 171.334 328.028 171.412 327.273 171.54L326.492 170.298L324.318 170.934L324.329 172.396C323.629 172.692 322.948 173.039 322.296 173.449L321.1 172.604L319.343 174.016L319.905 175.363C319.381 175.901 318.878 176.481 318.434 177.115L317.013 176.798L315.927 178.778L316.962 179.802C316.67 180.523 316.44 181.246 316.27 181.991L314.831 182.23L314.589 184.476L315.938 185.037C315.933 185.799 316.009 186.563 316.139 187.309L314.897 188.09L315.533 190.264L316.995 190.262C317.291 190.962 317.638 191.643 318.048 192.285L317.205 193.482L318.617 195.249L319.975 194.678C320.512 195.211 321.092 195.705 321.726 196.149L321.399 197.579L323.379 198.667L324.413 197.631C325.124 197.923 325.857 198.144 326.593 198.313L326.842 199.752L329.087 200.004L329.638 198.653C330.4 198.649 331.164 198.572 331.92 198.444L332.701 199.685L334.864 199.049L334.863 197.587C335.564 197.292 336.244 196.945 336.896 196.535L338.082 197.379L339.849 195.968L339.278 194.62C339.811 194.083 340.304 193.502 340.758 192.869L342.178 193.185L343.264 191.205L342.229 190.181C342.521 189.461 342.742 188.737 342.911 188.001L344.359 187.752ZM333.035 186.88C331.991 188.779 329.599 189.48 327.7 188.437C325.801 187.394 325.11 185.003 326.154 183.103C327.197 181.204 329.577 180.514 331.478 181.556C333.377 182.599 334.077 184.981 333.035 186.88Z" fill="#407BFF"/>
<path d="M356.822 149.736L354.199 147.924C354.199 147.923 354.199 147.92 354.198 147.918C353.938 146.966 353.58 146.049 353.143 145.187L353.815 142.55L350.011 138.477L347.335 138.967C346.506 138.471 345.616 138.053 344.684 137.729C344.682 137.728 344.68 137.728 344.677 137.727L343.05 134.986L337.48 134.795L335.669 137.418C335.666 137.418 335.662 137.419 335.659 137.42C334.707 137.68 333.791 138.037 332.93 138.473L330.294 137.801L326.221 141.605L326.711 144.277C326.71 144.278 326.71 144.279 326.709 144.28C326.204 145.118 325.794 146.008 325.47 146.941L322.73 148.568L322.539 154.137L325.163 155.95C325.422 156.908 325.769 157.823 326.214 158.692C326.214 158.693 326.214 158.693 326.214 158.693L325.545 161.322L329.348 165.395L332.009 164.908C332.848 165.404 333.739 165.825 334.683 166.149C334.684 166.149 334.685 166.149 334.686 166.149L336.31 168.886L341.88 169.077L343.689 166.456C344.652 166.198 345.569 165.84 346.441 165.402C346.441 165.402 346.442 165.402 346.442 165.401L349.065 166.069L353.138 162.267L352.649 159.594C353.154 158.756 353.563 157.865 353.887 156.933L356.628 155.304L356.822 149.736ZM339.465 158.202C336.003 158.084 333.298 155.177 333.416 151.725C333.535 148.263 336.432 145.559 339.893 145.677C343.356 145.796 346.06 148.692 345.942 152.154C345.824 155.606 342.926 158.321 339.465 158.202Z" fill="white"/>
<path d="M375.957 105.29L376.416 104.184C376.416 104.184 376.417 104.184 376.418 104.184C376.747 104.014 377.056 103.81 377.338 103.581L378.36 103.62L379.556 101.903L379.165 100.958C379.282 100.615 379.366 100.255 379.411 99.8872C379.411 99.8863 379.411 99.8854 379.411 99.8846L380.289 99.0709L379.92 97.0107L378.814 96.5524C378.814 96.5515 378.814 96.5497 378.813 96.5488C378.643 96.2198 378.44 95.912 378.211 95.6296L378.25 94.6092L376.533 93.4128L375.59 93.8025H375.589C375.241 93.6829 374.882 93.6028 374.515 93.5571L373.701 92.6792L371.641 93.0478L371.182 94.1544C370.85 94.325 370.541 94.5247 370.257 94.757L369.239 94.7183L368.044 96.4354L368.432 97.374C368.316 97.7215 368.231 98.0812 368.187 98.4533L367.31 99.2662L367.679 101.326L368.784 101.785C368.954 102.118 369.158 102.427 369.388 102.712L369.349 103.728L371.066 104.924L372.009 104.534C372.357 104.653 372.717 104.733 373.084 104.779L373.898 105.658L375.957 105.29ZM371.481 99.5837C371.252 98.3029 372.106 97.081 373.383 96.8523C374.663 96.6236 375.884 97.4734 376.114 98.7542C376.343 100.035 375.492 101.256 374.212 101.486C372.936 101.714 371.71 100.865 371.481 99.5837Z" fill="#407BFF"/>
<path d="M351.823 99.4535L351.151 98.8861C352.319 97.5033 353.975 95.751 356.436 94.4622L356.844 95.2425C354.221 96.6157 352.54 98.6046 351.823 99.4535Z" fill="#407BFF"/>
<path d="M358.846 94.4508L358.498 93.6415C361.826 92.2164 365.303 91.6605 368.825 91.9877L368.743 92.8639C365.365 92.5419 362.036 93.082 358.846 94.4508Z" fill="#407BFF"/>
<path d="M357.185 100.536L356.458 100.041C358.265 97.3872 361.836 95.0763 365.142 94.4209L365.312 95.283C362.214 95.8988 358.872 98.0583 357.185 100.536Z" fill="#407BFF"/>
<path d="M298.81 185.193C298.692 185.193 298.578 185.146 298.494 185.06L296.65 183.159C295.71 183.07 294.781 182.898 293.882 182.643L291.007 183.911C290.871 183.973 290.713 183.958 290.587 183.876L285.771 180.682C285.646 180.599 285.572 180.459 285.574 180.309L285.621 177.174C285.036 176.446 284.514 175.655 284.068 174.819L281.6 173.862C281.46 173.808 281.358 173.687 281.327 173.54L280.179 167.877C280.15 167.73 280.197 167.578 280.304 167.473L282.205 165.63C282.293 164.694 282.466 163.765 282.719 162.859L281.453 159.988C281.392 159.851 281.407 159.693 281.488 159.567L284.681 154.75C284.763 154.625 284.881 154.547 285.055 154.553L288.187 154.601C288.922 154.013 289.714 153.492 290.544 153.048L291.501 150.579C291.555 150.439 291.677 150.337 291.824 150.307L297.487 149.158C297.634 149.13 297.786 149.175 297.89 149.283L299.732 151.182C300.668 151.27 301.599 151.443 302.506 151.696L305.376 150.431C305.512 150.371 305.671 150.384 305.796 150.467L310.613 153.659C310.737 153.743 310.811 153.882 310.81 154.033L310.762 157.169C311.348 157.898 311.869 158.689 312.314 159.522L314.783 160.48C314.923 160.534 315.025 160.655 315.056 160.802L316.204 166.465C316.234 166.612 316.186 166.764 316.079 166.869L314.177 168.714C314.09 169.638 313.918 170.566 313.662 171.478L314.93 174.354C314.991 174.491 314.977 174.651 314.895 174.775L311.703 179.593C311.621 179.718 311.489 179.781 311.33 179.791L308.196 179.743C307.466 180.325 306.675 180.845 305.843 181.29L304.883 183.765C304.83 183.905 304.707 184.007 304.56 184.038L298.897 185.186C298.868 185.191 298.839 185.193 298.81 185.193ZM293.851 181.736C293.893 181.736 293.935 181.743 293.975 181.755C294.917 182.031 295.897 182.214 296.888 182.297C296.994 182.305 297.093 182.352 297.167 182.429L298.958 184.275L304.15 183.222L305.082 180.819C305.121 180.719 305.195 180.637 305.289 180.587C306.171 180.127 307.004 179.58 307.765 178.959C307.845 178.894 307.936 178.849 308.049 178.861L311.103 178.907L314.029 174.491L312.794 171.69C312.753 171.596 312.746 171.489 312.775 171.39C313.053 170.43 313.235 169.45 313.317 168.477C313.325 168.371 313.372 168.272 313.449 168.197L315.295 166.406L314.243 161.215L311.844 160.285C311.742 160.245 311.659 160.169 311.609 160.072C311.152 159.192 310.604 158.363 309.981 157.603C309.915 157.522 309.879 157.421 309.881 157.318L309.927 154.262L305.511 151.335L302.718 152.566C302.623 152.608 302.517 152.615 302.418 152.587C301.464 152.31 300.481 152.127 299.494 152.045C299.388 152.036 299.289 151.988 299.216 151.914L297.427 150.069L292.235 151.122L291.306 153.521C291.267 153.62 291.193 153.703 291.098 153.752C290.222 154.209 289.388 154.758 288.621 155.383C288.541 155.448 288.433 155.495 288.335 155.483L285.282 155.436L282.356 159.852L283.589 162.648C283.642 162.769 283.638 162.906 283.58 163.023C283.332 163.902 283.15 164.883 283.067 165.867C283.059 165.973 283.012 166.071 282.935 166.146L281.09 167.936L282.142 173.127L284.54 174.057C284.647 174.098 284.733 174.18 284.78 174.283C285.236 175.156 285.783 175.984 286.402 176.738C286.468 176.819 286.505 176.922 286.503 177.026L286.457 180.08L290.873 183.007L293.674 181.772C293.73 181.75 293.791 181.736 293.851 181.736ZM298.178 178.891C295.954 178.891 293.707 178.261 291.718 176.943C289.109 175.214 287.329 172.571 286.705 169.504C286.081 166.435 286.691 163.308 288.42 160.698H288.421C291.997 155.31 299.287 153.83 304.671 157.399C310.057 160.973 311.534 168.263 307.965 173.65C305.712 177.049 301.979 178.891 298.178 178.891ZM289.154 161.185C287.555 163.597 286.991 166.49 287.568 169.329C288.144 172.166 289.791 174.61 292.205 176.209C297.19 179.512 303.93 178.146 307.23 173.164C310.533 168.181 309.166 161.438 304.185 158.133C299.204 154.832 292.461 156.2 289.154 161.185Z" fill="white"/>
<path d="M466.373 204.276L452.566 202.413L461.697 133.967L435.06 130.373L370.445 189.862L367.051 215.31L422.727 222.824L419.951 243.639L446.588 247.233L449.364 226.418L463.171 228.282L466.373 204.276ZM396.511 194.848L430.605 163.771L425.93 198.818L396.511 194.848Z" fill="#005EAC"/>
<path d="M438.494 246.581C438.468 246.581 438.441 246.578 438.415 246.574C438.177 246.53 438.017 246.301 438.061 246.062L458.581 133.525C458.624 133.287 458.855 133.138 459.092 133.171C459.331 133.215 459.489 133.445 459.445 133.683L438.926 246.22C438.887 246.432 438.703 246.581 438.494 246.581Z" fill="#263238"/>
<path d="M456.701 135.415C456.687 135.813 456.353 136.124 455.956 136.111C455.558 136.097 455.247 135.764 455.26 135.366C455.273 134.969 455.607 134.657 456.005 134.67C456.403 134.684 456.715 135.017 456.701 135.415Z" fill="#263238"/>
<path d="M453.77 150.635C453.756 151.032 453.422 151.344 453.025 151.33C452.627 151.317 452.316 150.983 452.329 150.585C452.342 150.188 452.676 149.876 453.074 149.89C453.471 149.903 453.783 150.236 453.77 150.635Z" fill="#263238"/>
<path d="M450.838 165.853C450.824 166.251 450.49 166.562 450.093 166.549C449.695 166.536 449.384 166.201 449.397 165.804C449.41 165.406 449.744 165.095 450.142 165.108C450.54 165.122 450.852 165.455 450.838 165.853Z" fill="#263238"/>
<path d="M445.073 181.697C445.059 182.094 444.726 182.406 444.328 182.393C443.931 182.378 443.619 182.045 443.632 181.647C443.646 181.25 443.98 180.938 444.377 180.952C444.775 180.965 445.087 181.298 445.073 181.697Z" fill="#263238"/>
<path d="M444.975 196.291C444.961 196.689 444.627 197 444.23 196.987C443.832 196.973 443.521 196.64 443.534 196.242C443.547 195.845 443.881 195.533 444.279 195.546C444.677 195.56 444.989 195.894 444.975 196.291Z" fill="#263238"/>
<path d="M442.044 211.511C442.03 211.908 441.696 212.22 441.299 212.206C440.901 212.193 440.59 211.859 440.603 211.461C440.616 211.064 440.95 210.752 441.348 210.766C441.745 210.779 442.057 211.112 442.044 211.511Z" fill="#263238"/>
<path d="M439.112 226.73C439.098 227.127 438.764 227.439 438.367 227.426C437.969 227.412 437.658 227.078 437.671 226.681C437.685 226.283 438.018 225.972 438.416 225.985C438.814 225.998 439.126 226.331 439.112 226.73Z" fill="#263238"/>
<path d="M436.181 241.948C436.167 242.346 435.833 242.657 435.436 242.644C435.038 242.631 434.726 242.297 434.74 241.899C434.753 241.501 435.087 241.19 435.485 241.203C435.882 241.216 436.194 241.551 436.181 241.948Z" fill="#263238"/>
<path d="M444.353 182.112C444.15 182.112 443.967 181.971 443.923 181.764C443.872 181.526 444.024 181.293 444.261 181.241L446.446 180.772C446.687 180.725 446.918 180.872 446.969 181.111C447.02 181.348 446.869 181.582 446.631 181.633L444.446 182.102C444.414 182.108 444.384 182.112 444.353 182.112Z" fill="#263238"/>
<path d="M451.646 174.008C451.646 174.008 449.677 179.135 449.015 182.242C448.353 185.349 448.312 192.292 448.312 192.292" fill="#263238"/>
<path d="M448.312 192.731H448.31C448.067 192.73 447.871 192.532 447.872 192.289C447.874 192.004 447.92 185.266 448.585 182.15C449.247 179.045 451.154 174.061 451.235 173.849C451.322 173.623 451.576 173.511 451.804 173.597C452.031 173.684 452.144 173.939 452.057 174.165C452.038 174.217 450.094 179.297 449.445 182.334C448.8 185.361 448.753 192.226 448.752 192.294C448.75 192.537 448.554 192.731 448.312 192.731Z" fill="#263238"/>
<path d="M287.47 268.66C288.692 248.953 286.444 213.129 323.487 217.872C363.191 222.954 351.832 269.382 351.832 269.382L287.47 268.66Z" fill="#263238"/>
<path d="M313.035 256.815C321.962 256.815 329.199 249.578 329.199 240.651C329.199 231.724 321.962 224.487 313.035 224.487C304.108 224.487 296.871 231.724 296.871 240.651C296.871 249.578 304.108 256.815 313.035 256.815Z" fill="white"/>
<path d="M315.158 224.512C307.501 223.205 299.315 228.849 298.508 234.567L328.863 237.358C327.793 230.84 321.233 225.549 315.158 224.512Z" fill="#263238"/>
<path d="M325.405 240.249C325.188 244.475 322.885 247.791 320.261 247.656C317.637 247.522 315.686 243.986 315.902 239.76C316.119 235.535 318.422 232.218 321.046 232.353C323.67 232.487 325.622 236.023 325.405 240.249Z" fill="#263238"/>
<path d="M313.035 257.694C303.637 257.694 295.991 250.049 295.991 240.651C295.991 231.252 303.637 223.607 313.035 223.607C322.434 223.607 330.079 231.252 330.079 240.651C330.079 250.049 322.433 257.694 313.035 257.694ZM313.035 225.366C304.607 225.366 297.75 232.223 297.75 240.651C297.75 249.079 304.606 255.935 313.035 255.935C321.463 255.935 328.32 249.079 328.32 240.651C328.32 232.223 321.462 225.366 313.035 225.366Z" fill="#407BFF"/>
<path opacity="0.3" d="M347.317 268.164C347.283 268.164 347.248 268.16 347.213 268.152C346.977 268.095 346.831 267.857 346.889 267.621C346.918 267.502 349.72 255.574 346.809 243.515C346.752 243.279 346.897 243.042 347.134 242.984C347.367 242.931 347.607 243.072 347.664 243.308C350.627 255.58 347.773 267.705 347.744 267.826C347.695 268.03 347.516 268.164 347.317 268.164Z" fill="white"/>
<path opacity="0.3" d="M344.865 236.92C344.698 236.92 344.539 236.825 344.465 236.663C343.334 234.195 341.931 231.929 340.294 229.927C340.14 229.739 340.168 229.463 340.356 229.309C340.543 229.154 340.821 229.182 340.975 229.371C342.659 231.43 344.103 233.76 345.265 236.297C345.366 236.518 345.269 236.779 345.048 236.88C344.988 236.907 344.927 236.92 344.865 236.92Z" fill="white"/>
<path d="M205.03 361.094C204.921 361.094 204.812 361.093 204.703 361.089C202.275 361.022 200.361 359 200.427 356.571C200.492 354.143 202.493 352.265 204.944 352.296C204.971 352.297 204.999 352.297 205.028 352.297C207.569 352.297 213.683 349.209 226.473 329.047C227.16 327.965 228.286 327.235 229.554 327.05C230.825 326.87 232.11 327.247 233.077 328.088C248.86 341.849 265.585 350.414 265.752 350.5C267.917 351.599 268.781 354.247 267.682 356.412C266.582 358.578 263.936 359.444 261.771 358.344C261.107 358.007 246.488 350.532 231.161 337.983C220.441 354.098 212.486 361.094 205.03 361.094Z" fill="#263238"/>
<path d="M232.243 327.298C232.118 327.298 231.993 327.29 231.866 327.272C230.423 327.066 229.421 325.729 229.627 324.286C230.253 319.907 229.478 303.502 223.931 290.747C223.426 289.585 223.818 288.228 224.866 287.514C236.915 279.302 262.582 278.32 263.67 278.282C265.119 278.251 266.347 279.371 266.398 280.828C266.449 282.284 265.309 283.507 263.854 283.557C263.616 283.566 241.176 284.426 229.645 290.772C234.557 303.473 235.671 319.306 234.852 325.032C234.663 326.349 233.535 327.298 232.243 327.298Z" fill="#263238"/>
<path d="M236.676 323.882C234.921 319.742 227.01 320.213 222.366 323.76C219.883 325.656 216.524 331.362 216.17 333.429C215.817 335.497 217.249 337.37 219.709 337.157C222.742 336.895 226.906 332.487 226.906 332.487C224.135 335.203 227.71 337.12 233.043 333.191C236.002 331.012 238.641 328.518 236.676 323.882Z" fill="#407BFF"/>
<path d="M387.976 269.822C387.937 269.822 387.895 269.816 387.855 269.804C387.622 269.737 387.486 269.493 387.554 269.26C388.726 265.179 390.006 262.685 391.689 261.298C391.431 260.422 391.46 259.416 391.823 258.432C392.177 257.474 392.86 256.522 393.901 255.788C393.392 255.237 393.202 254.517 393.382 253.693C393.582 252.777 394.247 251.784 395.261 250.916C394.862 250.458 394.765 249.959 394.762 249.59C394.74 246.967 399.606 242.97 405.109 242.219C405.35 242.174 405.572 242.354 405.604 242.596C405.637 242.836 405.469 243.057 405.228 243.091C400.004 243.804 395.624 247.585 395.642 249.583C395.644 249.907 395.764 250.167 395.96 250.377C397.94 248.999 400.863 248.112 404.125 248.738C406.825 249.255 407.923 249.825 407.796 250.645C407.557 252.187 401.807 252.505 397.953 252.047C397.079 251.943 396.44 251.736 395.973 251.479C395.015 252.262 394.401 253.142 394.241 253.88C394.098 254.539 394.311 254.998 394.677 255.319C396.309 254.477 398.608 254.125 401.64 254.796C405.631 255.676 405.78 256.163 405.87 256.452C405.933 256.659 405.882 256.872 405.728 257.035C404.887 257.926 398.773 257.503 395.702 256.75C395.301 256.653 394.949 256.519 394.643 256.354C393.626 256.995 392.971 257.861 392.648 258.736C392.39 259.438 392.331 260.137 392.449 260.762C392.608 260.668 392.77 260.581 392.935 260.502C394.755 259.638 396.956 259.784 399.668 260.943C401.467 261.714 402.334 262.394 402.398 263.088C402.417 263.293 402.377 263.687 401.896 264.005C400.555 264.896 395.853 264.761 393.409 263.46C392.833 263.152 392.376 262.699 392.056 262.153C390.618 263.466 389.459 265.817 388.4 269.502C388.343 269.697 388.167 269.822 387.976 269.822ZM392.749 261.613C392.991 262.064 393.353 262.435 393.821 262.684C395.806 263.74 399.711 263.982 401.177 263.391C401.476 263.27 401.521 263.169 401.521 263.169C401.521 263.166 401.472 262.673 399.321 261.753C396.855 260.698 394.889 260.551 393.312 261.297C393.12 261.389 392.932 261.494 392.749 261.613ZM395.681 255.836C395.757 255.858 395.834 255.879 395.908 255.897C399.014 256.657 403.208 256.787 404.646 256.551C404.201 256.363 403.291 256.062 401.448 255.655C399.009 255.118 397.102 255.286 395.681 255.836ZM396.791 250.89C397.188 251.038 397.637 251.125 398.056 251.174C402.439 251.693 406.309 251.08 406.888 250.534C406.738 250.398 406.148 250.022 403.959 249.603C401.071 249.053 398.548 249.777 396.791 250.89Z" fill="#263238"/>
<path d="M273.461 359.625C274.041 359.439 273.847 358.88 273.2 358.88H261.29C238.611 356.478 222.766 359.697 232.751 360.456C242.735 361.215 232.048 361.056 224.757 363.814C217.465 366.572 278.992 367.267 284.587 363.814C289.748 360.628 265.426 362.2 273.461 359.625Z" fill="#263238"/>
<path d="M358.739 363.135L255.111 359.699L250.811 259.221L373.183 261.958L358.739 363.135Z" fill="#0072BC"/>
<path d="M287.47 361.212C287.243 361.212 287.051 361.039 287.032 360.809L278.725 259.892C278.705 259.65 278.885 259.437 279.128 259.418C279.377 259.404 279.583 259.578 279.602 259.82L287.909 360.737C287.928 360.978 287.749 361.191 287.506 361.211C287.494 361.212 287.482 361.212 287.47 361.212Z" fill="#263238"/>
<path d="M358.739 363.135L386.591 358.895L395.364 265.464L373.183 261.958L358.739 363.135Z" fill="#005EAC"/>
<path opacity="0.2" d="M358.739 363.135L386.591 358.895L395.364 265.464L373.183 261.958L358.739 363.135Z" fill="black"/>
<path d="M263.967 340.332L261.412 280.636C261.146 274.405 266.201 269.245 272.437 269.385L349.9 271.117C356.369 271.262 361.257 277.027 360.342 283.433L351.754 343.594C350.975 349.047 346.216 353.039 340.712 352.856L274.393 350.657C268.752 350.47 264.209 345.97 263.967 340.332Z" fill="#263238"/>
<path d="M272.335 287.703L284.32 288.084L284.222 291.175L276.719 290.936L276.646 293.237L283.606 293.458L283.512 296.41L276.552 296.188L276.461 299.041L284.181 299.286L284.077 302.564L271.875 302.176L272.335 287.703Z" fill="white"/>
<path d="M286.545 302.642L287.005 288.17L294.458 288.407C295.84 288.451 296.893 288.603 297.615 288.864C298.339 289.124 298.913 289.582 299.34 290.238C299.768 290.894 299.967 291.682 299.937 292.604C299.911 293.407 299.718 294.094 299.357 294.666C298.996 295.238 298.51 295.695 297.9 296.038C297.511 296.256 296.981 296.43 296.311 296.56C296.838 296.755 297.22 296.945 297.458 297.13C297.618 297.254 297.849 297.515 298.148 297.914C298.448 298.312 298.648 298.618 298.747 298.833L300.779 303.096L295.726 302.935L293.477 298.436C293.192 297.855 292.934 297.474 292.702 297.295C292.387 297.061 292.025 296.937 291.617 296.924L291.222 296.912L291.035 302.786L286.545 302.642ZM291.311 294.177L293.196 294.237C293.4 294.243 293.797 294.19 294.387 294.078C294.685 294.027 294.932 293.884 295.127 293.647C295.322 293.409 295.425 293.132 295.435 292.816C295.45 292.349 295.313 291.986 295.025 291.726C294.736 291.467 294.185 291.324 293.368 291.298L291.404 291.235L291.311 294.177Z" fill="white"/>
<path d="M302.271 303.143L302.731 288.67L310.184 288.908C311.566 288.952 312.619 289.104 313.341 289.364C314.064 289.625 314.639 290.082 315.066 290.738C315.494 291.395 315.693 292.184 315.663 293.105C315.637 293.908 315.444 294.595 315.083 295.167C314.722 295.738 314.236 296.196 313.625 296.538C313.237 296.756 312.707 296.93 312.037 297.061C312.564 297.256 312.946 297.446 313.184 297.631C313.345 297.755 313.574 298.016 313.875 298.414C314.175 298.813 314.375 299.119 314.473 299.334L316.506 303.597L311.452 303.436L309.202 298.937C308.918 298.355 308.66 297.975 308.428 297.796C308.113 297.562 307.751 297.438 307.343 297.425L306.948 297.412L306.761 303.286L302.271 303.143ZM307.037 294.678L308.922 294.737C309.126 294.744 309.523 294.691 310.113 294.577C310.411 294.527 310.657 294.384 310.853 294.146C311.048 293.909 311.151 293.632 311.161 293.316C311.176 292.849 311.039 292.485 310.751 292.226C310.462 291.966 309.91 291.824 309.094 291.798L307.13 291.735L307.037 294.678Z" fill="white"/>
<path d="M317.259 296.386C317.335 294.023 318.051 292.205 319.409 290.93C320.768 289.656 322.621 289.056 324.971 289.131C327.379 289.208 329.215 289.913 330.476 291.248C331.739 292.582 332.333 294.415 332.259 296.745C332.205 298.436 331.876 299.815 331.273 300.879C330.668 301.944 329.819 302.76 328.724 303.328C327.629 303.897 326.279 304.154 324.672 304.103C323.041 304.051 321.698 303.749 320.645 303.195C319.592 302.64 318.751 301.791 318.122 300.643C317.493 299.496 317.206 298.077 317.259 296.386ZM321.731 296.548C321.684 298.009 321.923 299.067 322.445 299.722C322.968 300.378 323.696 300.721 324.631 300.751C325.592 300.782 326.346 300.492 326.892 299.884C327.438 299.276 327.737 298.162 327.789 296.542C327.832 295.181 327.589 294.176 327.06 293.53C326.53 292.884 325.795 292.546 324.854 292.516C323.952 292.487 323.217 292.784 322.651 293.405C322.084 294.026 321.777 295.073 321.731 296.548Z" fill="white"/>
<path d="M334.493 304.167L334.953 289.695L342.407 289.933C343.789 289.977 344.842 290.129 345.564 290.389C346.287 290.65 346.861 291.107 347.289 291.763C347.716 292.419 347.915 293.208 347.885 294.13C347.86 294.933 347.666 295.62 347.305 296.191C346.945 296.763 346.458 297.221 345.848 297.563C345.458 297.781 344.929 297.955 344.259 298.085C344.786 298.281 345.169 298.471 345.406 298.655C345.566 298.779 345.797 299.041 346.097 299.439C346.397 299.838 346.596 300.144 346.695 300.358L348.727 304.621L343.674 304.46L341.425 299.962C341.14 299.38 340.882 298.999 340.651 298.821C340.335 298.587 339.973 298.463 339.565 298.45L339.17 298.437L338.984 304.311L334.493 304.167ZM339.259 295.702L341.144 295.762C341.348 295.768 341.745 295.716 342.335 295.602C342.634 295.552 342.88 295.409 343.075 295.171C343.27 294.934 343.373 294.656 343.383 294.341C343.398 293.874 343.262 293.51 342.973 293.251C342.685 292.991 342.133 292.849 341.317 292.822L339.352 292.76L339.259 295.702Z" fill="white"/>
<path d="M341.611 328.757C341.298 328.757 340.987 328.63 340.758 328.381L333.227 320.14L325.102 327.563C324.631 327.994 323.901 327.96 323.471 327.49L315.94 319.249L307.814 326.672C307.344 327.102 306.613 327.069 306.183 326.599L298.653 318.357L290.527 325.782C290.302 325.989 289.997 326.097 289.697 326.084C289.39 326.07 289.103 325.935 288.896 325.709L281.365 317.467L273.24 324.891C272.769 325.321 272.039 325.287 271.609 324.818C271.179 324.347 271.212 323.616 271.683 323.186L280.66 314.983C281.13 314.551 281.86 314.585 282.292 315.056L289.822 323.298L297.948 315.873C298.173 315.667 298.477 315.559 298.778 315.572C299.084 315.586 299.372 315.72 299.579 315.946L307.11 324.188L315.235 316.764C315.705 316.333 316.436 316.367 316.866 316.837L324.397 325.079L332.523 317.655C332.993 317.224 333.723 317.257 334.154 317.729L342.464 326.823C342.894 327.293 342.86 328.024 342.39 328.454C342.168 328.658 341.889 328.757 341.611 328.757Z" fill="white"/>
<path d="M202.404 365.271L196.899 362.645L191.988 338.747L194.653 335.812L202.404 365.271Z" fill="#407BFF"/>
<path d="M202.404 365.271L209.71 361.003L203.446 341.313L194.653 335.812L202.404 365.271Z" fill="#407BFF"/>
<path opacity="0.2" d="M202.404 365.271L209.71 361.003L203.446 341.313L194.653 335.812L202.404 365.271Z" fill="black"/>
<path d="M322.215 369.615C322.007 369.615 321.804 369.612 321.607 369.606C319.179 369.539 317.264 367.517 317.331 365.088C317.398 362.661 319.403 360.752 321.848 360.813C328.624 361.035 342.965 356.872 351.158 348.919C351.664 348.427 352.281 348.065 352.957 347.863C366.846 343.695 372.015 352.115 372.228 352.476L364.657 356.953C364.657 356.953 364.686 357.014 364.758 357.114C364.674 356.998 362.708 354.441 356.444 356.023C346.163 365.408 330.381 369.615 322.215 369.615Z" fill="#263238"/>
<path d="M321.727 375.462L305.706 374.452L304.442 344.917L325.973 345.721L321.727 375.462Z" fill="#407BFF"/>
<path d="M321.727 375.462L325.472 371.735L327.793 353.318L325.973 345.721L321.727 375.462Z" fill="#407BFF"/>
<path opacity="0.2" d="M321.727 375.462L325.472 371.735L327.793 353.318L325.973 345.721L321.727 375.462Z" fill="black"/>
<path d="M414.546 364.277C413.99 364.277 413.429 364.102 412.951 363.74C403.807 356.79 391.447 344.452 386.704 332.549C386.635 332.376 386.585 332.195 386.554 332.01C384.241 318.258 382.031 289.31 381.938 288.083C381.828 286.631 382.916 285.363 384.37 285.253C385.818 285.146 387.09 286.231 387.2 287.685C387.223 287.981 389.455 317.212 391.711 330.853C396.442 342.426 409.267 354.311 416.144 359.537C417.305 360.419 417.531 362.075 416.648 363.235C416.13 363.918 415.343 364.277 414.546 364.277Z" fill="#263238"/>
<path d="M426.745 365.611C424.705 365.611 422.392 364.685 419.871 362.862C418.691 362.007 418.426 360.357 419.281 359.177C420.136 357.996 421.786 357.732 422.966 358.586C425.145 360.163 426.335 360.333 426.746 360.333C428.204 360.333 429.385 361.514 429.385 362.972C429.384 364.429 428.203 365.611 426.745 365.611Z" fill="#263238"/>
<path d="M420.61 362.786C423.434 354.399 435.011 356.056 438.997 357.301C442.984 358.547 446.576 360.115 448.735 361.527C450.895 362.938 450.929 365.296 448.05 366.643C444.5 368.304 435.593 366.83 435.593 366.83C440.203 368.849 435.584 372.083 427.496 368.906C424.862 367.872 419.614 365.86 420.61 362.786Z" fill="#407BFF"/>
<path d="M392.512 291.703C391.464 298.83 385.562 304.086 380.761 303.38C375.96 302.675 375.76 296.309 376.808 289.182C377.856 282.055 379.754 276.866 384.555 277.571C389.356 278.278 393.56 284.577 392.512 291.703Z" fill="#263238"/>
<path d="M276.406 263.253C276.804 263.253 277.127 262.93 277.127 262.533C277.127 262.135 276.804 261.812 276.406 261.812C276.009 261.812 275.686 262.135 275.686 262.533C275.686 262.93 276.009 263.253 276.406 263.253Z" fill="#263238"/>
<path d="M283.737 267.725C283.737 268.123 283.414 268.446 283.016 268.446C282.619 268.446 282.295 268.123 282.295 267.725C282.295 267.327 282.618 267.005 283.016 267.005C283.415 267.005 283.737 267.327 283.737 267.725Z" fill="#263238"/>
<path d="M284.543 352.97C284.543 353.368 284.221 353.69 283.823 353.69C283.425 353.69 283.102 353.368 283.102 352.97C283.102 352.571 283.425 352.249 283.823 352.249C284.221 352.249 284.543 352.571 284.543 352.97Z" fill="#263238"/>
<path d="M291.153 358.163C291.153 358.561 290.83 358.883 290.432 358.883C290.034 358.883 289.712 358.56 289.712 358.163C289.712 357.764 290.034 357.442 290.432 357.442C290.83 357.441 291.153 357.764 291.153 358.163Z" fill="#263238"/>
<path d="M164.367 366.813C162.273 366.813 159.443 365.544 157.916 363.339C157.778 363.139 157.827 362.865 158.027 362.727C158.227 362.588 158.5 362.638 158.639 362.839C160.281 365.209 163.899 366.473 165.505 365.724C165.674 365.645 165.811 365.546 165.916 365.426C164.48 364.763 163.168 363.464 162.814 361.483C162.615 360.369 162.456 358.862 163.376 358.654C164.638 358.37 166.288 361.421 166.923 363.734C167.041 364.161 167.078 364.558 167.038 364.915C167.594 365.067 168.141 365.107 168.61 365.039C168.991 364.984 169.532 364.827 169.819 364.384C168.75 363.662 168.032 362.388 167.792 360.699C167.45 358.294 167.706 357.874 167.973 357.669C168.146 357.536 168.366 357.511 168.578 357.601C169.518 358.001 170.658 361.413 170.877 363.344C170.9 363.557 170.9 363.761 170.879 363.954C171.239 364.097 171.636 364.175 172.066 364.184C172.829 364.228 173.582 363.985 174.186 363.631C174.061 363.552 173.943 363.465 173.832 363.371C172.919 362.591 172.551 361.344 172.706 359.561C172.826 358.183 173.14 357.429 173.694 357.192C173.889 357.106 174.284 357.026 174.757 357.403C175.707 358.162 176.594 360.568 176.275 362.291C176.209 362.647 176.055 362.989 175.833 363.303C177.448 363.581 179.719 363.128 181.678 362.645C181.913 362.587 182.152 362.73 182.21 362.966C182.268 363.202 182.125 363.44 181.889 363.498C179.505 364.087 176.939 364.567 175.126 364.041C174.32 364.682 173.186 365.071 172.049 365.063C171.531 365.052 171.048 364.96 170.607 364.792C170.261 365.382 169.616 365.782 168.739 365.91C168.155 365.997 167.467 365.941 166.77 365.742C166.572 366.072 166.273 366.337 165.879 366.521C165.457 366.717 164.94 366.812 164.367 366.813ZM163.607 359.531C163.556 359.666 163.464 360.111 163.682 361.33C163.971 362.948 165.019 364.024 166.179 364.591C166.174 364.404 166.14 364.196 166.077 363.969C165.386 361.454 164.072 359.721 163.607 359.531ZM168.508 358.764C168.502 359.095 168.532 359.651 168.663 360.576C168.842 361.832 169.305 362.796 170 363.411C169.794 361.644 169.01 359.598 168.508 358.764ZM174.042 358H174.04C174.038 358.001 173.71 358.167 173.582 359.636C173.453 361.117 173.722 362.119 174.403 362.701C174.558 362.833 174.734 362.944 174.93 363.034C175.179 362.759 175.349 362.451 175.408 362.13C175.643 360.855 175.037 358.989 174.356 358.233C174.18 358.037 174.066 358 174.042 358Z" fill="#263238"/>
<path d="M293.119 373.462L295.502 369.327L293.119 365.193H290.567L292.008 369.327L290.567 373.462H293.119Z" fill="#263238"/>
<path d="M290.735 371.483C289.547 371.483 288.579 370.515 288.579 369.327C288.579 368.14 289.547 367.181 290.735 367.181L286.681 366.37L285.606 369.643L287.415 372.405L290.735 371.483Z" fill="#263238"/>
<path d="M291.081 365.193H286.305L283.921 369.327L286.305 373.462H291.081L293.465 369.327L291.081 365.193ZM288.697 371.483C287.51 371.483 286.542 370.515 286.542 369.327C286.542 368.14 287.51 367.181 288.697 367.181C289.885 367.181 290.844 368.14 290.844 369.327C290.844 370.515 289.885 371.483 288.697 371.483Z" fill="#407BFF"/>
<path d="M459.391 364.918L457.621 361.847L459.391 358.777H461.286L460.216 361.848L461.286 364.918H459.391Z" fill="#407BFF"/>
<path d="M461.162 363.448C462.044 363.448 462.763 362.729 462.763 361.847C462.763 360.965 462.044 360.253 461.162 360.253L464.172 359.65L464.971 362.082L463.627 364.132L461.162 363.448Z" fill="#407BFF"/>
<path d="M460.905 358.777H464.452L466.223 361.847L464.452 364.918H460.905L459.134 361.847L460.905 358.777ZM462.675 363.448C463.558 363.448 464.276 362.729 464.276 361.847C464.276 360.965 463.558 360.253 462.675 360.253C461.793 360.253 461.082 360.965 461.082 361.847C461.081 362.729 461.793 363.448 462.675 363.448Z" fill="#263238"/>
<path d="M393.467 368.993H397.442C398.476 368.993 399.323 368.147 399.323 367.112C399.323 366.077 398.476 365.23 397.442 365.23H393.467C392.432 365.23 391.586 366.077 391.586 367.112C391.586 368.147 392.432 368.993 393.467 368.993Z" fill="#263238"/>
<path d="M387.118 365.444C388.099 363.362 390.478 362.422 392.433 363.343C394.386 364.264 395.175 366.698 394.194 368.779C393.213 370.861 390.833 371.801 388.88 370.88C386.924 369.959 386.136 367.525 387.118 365.444Z" fill="#407BFF"/>
<path d="M388.237 370.863L389.327 371.377L393.117 363.339L392.027 362.825L388.237 370.863Z" fill="#263238"/>
</g>
<path d="M656.785 378.752H2.15063" stroke="#005EAC" stroke-width="4" stroke-linecap="round"/>
<defs>
<clipPath id="clip0_14096_24527">
<rect width="439.836" height="439.836" fill="white" transform="translate(91.7852 0.5)"/>
</clipPath>
</defs>
</svg>
